<svg width="1920" height="1080" viewBox="0 0 1920 1080" xmlns="http://www.w3.org/2000/svg" style="background-color: rgba(0, 0, 0, 0.0);"><g><rect x="0" y="0" width="120" height="120" fill="transparent" stroke="white" stroke-width="3"/><text x="60" y="60" text-anchor="middle" dominant-baseline="middle" fill="white" font-size="20" font-weight="bold">A1</text></g><g><rect x="120" y="0" width="120" height="120" fill="transparent" stroke="white" stroke-width="3"/><text x="180" y="60" text-anchor="middle" dominant-baseline="middle" fill="white" font-size="20" font-weight="bold">B1</text></g><g><rect x="240" y="0" width="120" height="120" fill="transparent" stroke="white" stroke-width="3"/><text x="300" y="60" text-anchor="middle" dominant-baseline="middle" fill="white" font-size="20" font-weight="bold">C1</text></g><g><rect x="360" y="0" width="120" height="120" fill="transparent" stroke="white" stroke-width="3"/><text x="420" y="60" text-anchor="middle" dominant-baseline="middle" fill="white" font-size="20" font-weight="bold">D1</text></g><g><rect x="480" y="0" width="120" height="120" fill="transparent" stroke="white" stroke-width="3"/><text x="540" y="60" text-anchor="middle" dominant-baseline="middle" fill="white" font-size="20" font-weight="bold">E1</text></g><g><rect x="600" y="0" width="120" height="120" fill="transparent" stroke="white" stroke-width="3"/><text x="660" y="60" text-anchor="middle" dominant-baseline="middle" fill="white" font-size="20" font-weight="bold">F1</text></g><g><rect x="720" y="0" width="120" height="120" fill="transparent" stroke="white" stroke-width="3"/><text x="780" y="60" text-anchor="middle" dominant-baseline="middle" fill="white" font-size="20" font-weight="bold">G1</text></g><g><rect x="840" y="0" width="120" height="120" fill="transparent" stroke="white" stroke-width="3"/><text x="900" y="60" text-anchor="middle" dominant-baseline="middle" fill="white" font-size="20" font-weight="bold">H1</text></g><g><rect x="960" y="0" width="120" height="120" fill="transparent" stroke="white" stroke-width="3"/><text x="1020" y="60" text-anchor="middle" dominant-baseline="middle" fill="white" font-size="20" font-weight="bold">I1</text></g><g><rect x="1080" y="0" width="120" height="120" fill="transparent" stroke="white" stroke-width="3"/><text x="1140" y="60" text-anchor="middle" dominant-baseline="middle" fill="white" font-size="20" font-weight="bold">J1</text></g><g><rect x="1200" y="0" width="120" height="120" fill="transparent" stroke="white" stroke-width="3"/><text x="1260" y="60" text-anchor="middle" dominant-baseline="middle" fill="white" font-size="20" font-weight="bold">K1</text></g><g><rect x="1320" y="0" width="120" height="120" fill="transparent" stroke="white" stroke-width="3"/><text x="1380" y="60" text-anchor="middle" dominant-baseline="middle" fill="white" font-size="20" font-weight="bold">L1</text></g><g><rect x="1440" y="0" width="120" height="120" fill="transparent" stroke="white" stroke-width="3"/><text x="1500" y="60" text-anchor="middle" dominant-baseline="middle" fill="white" font-size="20" font-weight="bold">M1</text></g><g><rect x="1560" y="0" width="120" height="120" fill="transparent" stroke="white" stroke-width="3"/><text x="1620" y="60" text-anchor="middle" dominant-baseline="middle" fill="white" font-size="20" font-weight="bold">N1</text></g><g><rect x="1680" y="0" width="120" height="120" fill="transparent" stroke="white" stroke-width="3"/><text x="1740" y="60" text-anchor="middle" dominant-baseline="middle" fill="white" font-size="20" font-weight="bold">O1</text></g><g><rect x="1800" y="0" width="120" height="120" fill="transparent" stroke="white" stroke-width="3"/><text x="1860" y="60" text-anchor="middle" dominant-baseline="middle" fill="white" font-size="20" font-weight="bold">P1</text></g><g><rect x="0" y="120" width="120" height="120" fill="transparent" stroke="white" stroke-width="3"/><text x="60" y="180" text-anchor="middle" dominant-baseline="middle" fill="white" font-size="20" font-weight="bold">A2</text></g><g><rect x="120" y="120" width="120" height="120" fill="transparent" stroke="white" stroke-width="3"/><text x="180" y="180" text-anchor="middle" dominant-baseline="middle" fill="white" font-size="20" font-weight="bold">B2</text></g><g><rect x="240" y="120" width="120" height="120" fill="transparent" stroke="white" stroke-width="3"/><text x="300" y="180" text-anchor="middle" dominant-baseline="middle" fill="white" font-size="20" font-weight="bold">C2</text></g><g><rect x="360" y="120" width="120" height="120" fill="transparent" stroke="white" stroke-width="3"/><text x="420" y="180" text-anchor="middle" dominant-baseline="middle" fill="white" font-size="20" font-weight="bold">D2</text></g><g><rect x="480" y="120" width="120" height="120" fill="transparent" stroke="white" stroke-width="3"/><text x="540" y="180" text-anchor="middle" dominant-baseline="middle" fill="white" font-size="20" font-weight="bold">E2</text></g><g><rect x="600" y="120" width="120" height="120" fill="transparent" stroke="white" stroke-width="3"/><text x="660" y="180" text-anchor="middle" dominant-baseline="middle" fill="white" font-size="20" font-weight="bold">F2</text></g><g><rect x="720" y="120" width="120" height="120" fill="transparent" stroke="white" stroke-width="3"/><text x="780" y="180" text-anchor="middle" dominant-baseline="middle" fill="white" font-size="20" font-weight="bold">G2</text></g><g><rect x="840" y="120" width="120" height="120" fill="transparent" stroke="white" stroke-width="3"/><text x="900" y="180" text-anchor="middle" dominant-baseline="middle" fill="white" font-size="20" font-weight="bold">H2</text></g><g><rect x="960" y="120" width="120" height="120" fill="transparent" stroke="white" stroke-width="3"/><text x="1020" y="180" text-anchor="middle" dominant-baseline="middle" fill="white" font-size="20" font-weight="bold">I2</text></g><g><rect x="1080" y="120" width="120" height="120" fill="transparent" stroke="white" stroke-width="3"/><text x="1140" y="180" text-anchor="middle" dominant-baseline="middle" fill="white" font-size="20" font-weight="bold">J2</text></g><g><rect x="1200" y="120" width="120" height="120" fill="transparent" stroke="white" stroke-width="3"/><text x="1260" y="180" text-anchor="middle" dominant-baseline="middle" fill="white" font-size="20" font-weight="bold">K2</text></g><g><rect x="1320" y="120" width="120" height="120" fill="transparent" stroke="white" stroke-width="3"/><text x="1380" y="180" text-anchor="middle" dominant-baseline="middle" fill="white" font-size="20" font-weight="bold">L2</text></g><g><rect x="1440" y="120" width="120" height="120" fill="transparent" stroke="white" stroke-width="3"/><text x="1500" y="180" text-anchor="middle" dominant-baseline="middle" fill="white" font-size="20" font-weight="bold">M2</text></g><g><rect x="1560" y="120" width="120" height="120" fill="transparent" stroke="white" stroke-width="3"/><text x="1620" y="180" text-anchor="middle" dominant-baseline="middle" fill="white" font-size="20" font-weight="bold">N2</text></g><g><rect x="1680" y="120" width="120" height="120" fill="transparent" stroke="white" stroke-width="3"/><text x="1740" y="180" text-anchor="middle" dominant-baseline="middle" fill="white" font-size="20" font-weight="bold">O2</text></g><g><rect x="1800" y="120" width="120" height="120" fill="transparent" stroke="white" stroke-width="3"/><text x="1860" y="180" text-anchor="middle" dominant-baseline="middle" fill="white" font-size="20" font-weight="bold">P2</text></g><g><rect x="0" y="240" width="120" height="120" fill="transparent" stroke="white" stroke-width="3"/><text x="60" y="300" text-anchor="middle" dominant-baseline="middle" fill="white" font-size="20" font-weight="bold">A3</text></g><g><rect x="120" y="240" width="120" height="120" fill="transparent" stroke="white" stroke-width="3"/><text x="180" y="300" text-anchor="middle" dominant-baseline="middle" fill="white" font-size="20" font-weight="bold">B3</text></g><g><rect x="240" y="240" width="120" height="120" fill="transparent" stroke="white" stroke-width="3"/><text x="300" y="300" text-anchor="middle" dominant-baseline="middle" fill="white" font-size="20" font-weight="bold">C3</text></g><g><rect x="360" y="240" width="120" height="120" fill="transparent" stroke="white" stroke-width="3"/><text x="420" y="300" text-anchor="middle" dominant-baseline="middle" fill="white" font-size="20" font-weight="bold">D3</text></g><g><rect x="480" y="240" width="120" height="120" fill="transparent" stroke="white" stroke-width="3"/><text x="540" y="300" text-anchor="middle" dominant-baseline="middle" fill="white" font-size="20" font-weight="bold">E3</text></g><g><rect x="600" y="240" width="120" height="120" fill="transparent" stroke="white" stroke-width="3"/><text x="660" y="300" text-anchor="middle" dominant-baseline="middle" fill="white" font-size="20" font-weight="bold">F3</text></g><g><rect x="720" y="240" width="120" height="120" fill="transparent" stroke="white" stroke-width="3"/><text x="780" y="300" text-anchor="middle" dominant-baseline="middle" fill="white" font-size="20" font-weight="bold">G3</text></g><g><rect x="840" y="240" width="120" height="120" fill="transparent" stroke="white" stroke-width="3"/><text x="900" y="300" text-anchor="middle" dominant-baseline="middle" fill="white" font-size="20" font-weight="bold">H3</text></g><g><rect x="960" y="240" width="120" height="120" fill="transparent" stroke="white" stroke-width="3"/><text x="1020" y="300" text-anchor="middle" dominant-baseline="middle" fill="white" font-size="20" font-weight="bold">I3</text></g><g><rect x="1080" y="240" width="120" height="120" fill="transparent" stroke="white" stroke-width="3"/><text x="1140" y="300" text-anchor="middle" dominant-baseline="middle" fill="white" font-size="20" font-weight="bold">J3</text></g><g><rect x="1200" y="240" width="120" height="120" fill="transparent" stroke="white" stroke-width="3"/><text x="1260" y="300" text-anchor="middle" dominant-baseline="middle" fill="white" font-size="20" font-weight="bold">K3</text></g><g><rect x="1320" y="240" width="120" height="120" fill="transparent" stroke="white" stroke-width="3"/><text x="1380" y="300" text-anchor="middle" dominant-baseline="middle" fill="white" font-size="20" font-weight="bold">L3</text></g><g><rect x="1440" y="240" width="120" height="120" fill="transparent" stroke="white" stroke-width="3"/><text x="1500" y="300" text-anchor="middle" dominant-baseline="middle" fill="white" font-size="20" font-weight="bold">M3</text></g><g><rect x="1560" y="240" width="120" height="120" fill="transparent" stroke="white" stroke-width="3"/><text x="1620" y="300" text-anchor="middle" dominant-baseline="middle" fill="white" font-size="20" font-weight="bold">N3</text></g><g><rect x="1680" y="240" width="120" height="120" fill="transparent" stroke="white" stroke-width="3"/><text x="1740" y="300" text-anchor="middle" dominant-baseline="middle" fill="white" font-size="20" font-weight="bold">O3</text></g><g><rect x="1800" y="240" width="120" height="120" fill="transparent" stroke="white" stroke-width="3"/><text x="1860" y="300" text-anchor="middle" dominant-baseline="middle" fill="white" font-size="20" font-weight="bold">P3</text></g><g><rect x="0" y="360" width="120" height="120" fill="transparent" stroke="white" stroke-width="3"/><text x="60" y="420" text-anchor="middle" dominant-baseline="middle" fill="white" font-size="20" font-weight="bold">A4</text></g><g><rect x="120" y="360" width="120" height="120" fill="transparent" stroke="white" stroke-width="3"/><text x="180" y="420" text-anchor="middle" dominant-baseline="middle" fill="white" font-size="20" font-weight="bold">B4</text></g><g><rect x="240" y="360" width="120" height="120" fill="transparent" stroke="white" stroke-width="3"/><text x="300" y="420" text-anchor="middle" dominant-baseline="middle" fill="white" font-size="20" font-weight="bold">C4</text></g><g><rect x="360" y="360" width="120" height="120" fill="transparent" stroke="white" stroke-width="3"/><text x="420" y="420" text-anchor="middle" dominant-baseline="middle" fill="white" font-size="20" font-weight="bold">D4</text></g><g><rect x="480" y="360" width="120" height="120" fill="transparent" stroke="white" stroke-width="3"/><text x="540" y="420" text-anchor="middle" dominant-baseline="middle" fill="white" font-size="20" font-weight="bold">E4</text></g><g><rect x="600" y="360" width="120" height="120" fill="transparent" stroke="white" stroke-width="3"/><text x="660" y="420" text-anchor="middle" dominant-baseline="middle" fill="white" font-size="20" font-weight="bold">F4</text></g><g><rect x="720" y="360" width="120" height="120" fill="transparent" stroke="white" stroke-width="3"/><text x="780" y="420" text-anchor="middle" dominant-baseline="middle" fill="white" font-size="20" font-weight="bold">G4</text></g><g><rect x="840" y="360" width="120" height="120" fill="transparent" stroke="white" stroke-width="3"/><text x="900" y="420" text-anchor="middle" dominant-baseline="middle" fill="white" font-size="20" font-weight="bold">H4</text></g><g><rect x="960" y="360" width="120" height="120" fill="transparent" stroke="white" stroke-width="3"/><text x="1020" y="420" text-anchor="middle" dominant-baseline="middle" fill="white" font-size="20" font-weight="bold">I4</text></g><g><rect x="1080" y="360" width="120" height="120" fill="transparent" stroke="white" stroke-width="3"/><text x="1140" y="420" text-anchor="middle" dominant-baseline="middle" fill="white" font-size="20" font-weight="bold">J4</text></g><g><rect x="1200" y="360" width="120" height="120" fill="transparent" stroke="white" stroke-width="3"/><text x="1260" y="420" text-anchor="middle" dominant-baseline="middle" fill="white" font-size="20" font-weight="bold">K4</text></g><g><rect x="1320" y="360" width="120" height="120" fill="transparent" stroke="white" stroke-width="3"/><text x="1380" y="420" text-anchor="middle" dominant-baseline="middle" fill="white" font-size="20" font-weight="bold">L4</text></g><g><rect x="1440" y="360" width="120" height="120" fill="transparent" stroke="white" stroke-width="3"/><text x="1500" y="420" text-anchor="middle" dominant-baseline="middle" fill="white" font-size="20" font-weight="bold">M4</text></g><g><rect x="1560" y="360" width="120" height="120" fill="transparent" stroke="white" stroke-width="3"/><text x="1620" y="420" text-anchor="middle" dominant-baseline="middle" fill="white" font-size="20" font-weight="bold">N4</text></g><g><rect x="1680" y="360" width="120" height="120" fill="transparent" stroke="white" stroke-width="3"/><text x="1740" y="420" text-anchor="middle" dominant-baseline="middle" fill="white" font-size="20" font-weight="bold">O4</text></g><g><rect x="1800" y="360" width="120" height="120" fill="transparent" stroke="white" stroke-width="3"/><text x="1860" y="420" text-anchor="middle" dominant-baseline="middle" fill="white" font-size="20" font-weight="bold">P4</text></g><g><rect x="0" y="480" width="120" height="120" fill="transparent" stroke="white" stroke-width="3"/><text x="60" y="540" text-anchor="middle" dominant-baseline="middle" fill="white" font-size="20" font-weight="bold">A5</text></g><g><rect x="120" y="480" width="120" height="120" fill="transparent" stroke="white" stroke-width="3"/><text x="180" y="540" text-anchor="middle" dominant-baseline="middle" fill="white" font-size="20" font-weight="bold">B5</text></g><g><rect x="240" y="480" width="120" height="120" fill="transparent" stroke="white" stroke-width="3"/><text x="300" y="540" text-anchor="middle" dominant-baseline="middle" fill="white" font-size="20" font-weight="bold">C5</text></g><g><rect x="360" y="480" width="120" height="120" fill="transparent" stroke="white" stroke-width="3"/><text x="420" y="540" text-anchor="middle" dominant-baseline="middle" fill="white" font-size="20" font-weight="bold">D5</text></g><g><rect x="480" y="480" width="120" height="120" fill="transparent" stroke="white" stroke-width="3"/><text x="540" y="540" text-anchor="middle" dominant-baseline="middle" fill="white" font-size="20" font-weight="bold">E5</text></g><g><rect x="600" y="480" width="120" height="120" fill="transparent" stroke="white" stroke-width="3"/><text x="660" y="540" text-anchor="middle" dominant-baseline="middle" fill="white" font-size="20" font-weight="bold">F5</text></g><g><rect x="720" y="480" width="120" height="120" fill="transparent" stroke="white" stroke-width="3"/><text x="780" y="540" text-anchor="middle" dominant-baseline="middle" fill="white" font-size="20" font-weight="bold">G5</text></g><g><rect x="840" y="480" width="120" height="120" fill="transparent" stroke="white" stroke-width="3"/><text x="900" y="540" text-anchor="middle" dominant-baseline="middle" fill="white" font-size="20" font-weight="bold">H5</text></g><g><rect x="960" y="480" width="120" height="120" fill="transparent" stroke="white" stroke-width="3"/><text x="1020" y="540" text-anchor="middle" dominant-baseline="middle" fill="white" font-size="20" font-weight="bold">I5</text></g><g><rect x="1080" y="480" width="120" height="120" fill="transparent" stroke="white" stroke-width="3"/><text x="1140" y="540" text-anchor="middle" dominant-baseline="middle" fill="white" font-size="20" font-weight="bold">J5</text></g><g><rect x="1200" y="480" width="120" height="120" fill="transparent" stroke="white" stroke-width="3"/><text x="1260" y="540" text-anchor="middle" dominant-baseline="middle" fill="white" font-size="20" font-weight="bold">K5</text></g><g><rect x="1320" y="480" width="120" height="120" fill="transparent" stroke="white" stroke-width="3"/><text x="1380" y="540" text-anchor="middle" dominant-baseline="middle" fill="white" font-size="20" font-weight="bold">L5</text></g><g><rect x="1440" y="480" width="120" height="120" fill="transparent" stroke="white" stroke-width="3"/><text x="1500" y="540" text-anchor="middle" dominant-baseline="middle" fill="white" font-size="20" font-weight="bold">M5</text></g><g><rect x="1560" y="480" width="120" height="120" fill="transparent" stroke="white" stroke-width="3"/><text x="1620" y="540" text-anchor="middle" dominant-baseline="middle" fill="white" font-size="20" font-weight="bold">N5</text></g><g><rect x="1680" y="480" width="120" height="120" fill="transparent" stroke="white" stroke-width="3"/><text x="1740" y="540" text-anchor="middle" dominant-baseline="middle" fill="white" font-size="20" font-weight="bold">O5</text></g><g><rect x="1800" y="480" width="120" height="120" fill="transparent" stroke="white" stroke-width="3"/><text x="1860" y="540" text-anchor="middle" dominant-baseline="middle" fill="white" font-size="20" font-weight="bold">P5</text></g><g><rect x="0" y="600" width="120" height="120" fill="transparent" stroke="white" stroke-width="3"/><text x="60" y="660" text-anchor="middle" dominant-baseline="middle" fill="white" font-size="20" font-weight="bold">A6</text></g><g><rect x="120" y="600" width="120" height="120" fill="transparent" stroke="white" stroke-width="3"/><text x="180" y="660" text-anchor="middle" dominant-baseline="middle" fill="white" font-size="20" font-weight="bold">B6</text></g><g><rect x="240" y="600" width="120" height="120" fill="transparent" stroke="white" stroke-width="3"/><text x="300" y="660" text-anchor="middle" dominant-baseline="middle" fill="white" font-size="20" font-weight="bold">C6</text></g><g><rect x="360" y="600" width="120" height="120" fill="transparent" stroke="white" stroke-width="3"/><text x="420" y="660" text-anchor="middle" dominant-baseline="middle" fill="white" font-size="20" font-weight="bold">D6</text></g><g><rect x="480" y="600" width="120" height="120" fill="transparent" stroke="white" stroke-width="3"/><text x="540" y="660" text-anchor="middle" dominant-baseline="middle" fill="white" font-size="20" font-weight="bold">E6</text></g><g><rect x="600" y="600" width="120" height="120" fill="transparent" stroke="white" stroke-width="3"/><text x="660" y="660" text-anchor="middle" dominant-baseline="middle" fill="white" font-size="20" font-weight="bold">F6</text></g><g><rect x="720" y="600" width="120" height="120" fill="transparent" stroke="white" stroke-width="3"/><text x="780" y="660" text-anchor="middle" dominant-baseline="middle" fill="white" font-size="20" font-weight="bold">G6</text></g><g><rect x="840" y="600" width="120" height="120" fill="transparent" stroke="white" stroke-width="3"/><text x="900" y="660" text-anchor="middle" dominant-baseline="middle" fill="white" font-size="20" font-weight="bold">H6</text></g><g><rect x="960" y="600" width="120" height="120" fill="transparent" stroke="white" stroke-width="3"/><text x="1020" y="660" text-anchor="middle" dominant-baseline="middle" fill="white" font-size="20" font-weight="bold">I6</text></g><g><rect x="1080" y="600" width="120" height="120" fill="transparent" stroke="white" stroke-width="3"/><text x="1140" y="660" text-anchor="middle" dominant-baseline="middle" fill="white" font-size="20" font-weight="bold">J6</text></g><g><rect x="1200" y="600" width="120" height="120" fill="transparent" stroke="white" stroke-width="3"/><text x="1260" y="660" text-anchor="middle" dominant-baseline="middle" fill="white" font-size="20" font-weight="bold">K6</text></g><g><rect x="1320" y="600" width="120" height="120" fill="transparent" stroke="white" stroke-width="3"/><text x="1380" y="660" text-anchor="middle" dominant-baseline="middle" fill="white" font-size="20" font-weight="bold">L6</text></g><g><rect x="1440" y="600" width="120" height="120" fill="transparent" stroke="white" stroke-width="3"/><text x="1500" y="660" text-anchor="middle" dominant-baseline="middle" fill="white" font-size="20" font-weight="bold">M6</text></g><g><rect x="1560" y="600" width="120" height="120" fill="transparent" stroke="white" stroke-width="3"/><text x="1620" y="660" text-anchor="middle" dominant-baseline="middle" fill="white" font-size="20" font-weight="bold">N6</text></g><g><rect x="1680" y="600" width="120" height="120" fill="transparent" stroke="white" stroke-width="3"/><text x="1740" y="660" text-anchor="middle" dominant-baseline="middle" fill="white" font-size="20" font-weight="bold">O6</text></g><g><rect x="1800" y="600" width="120" height="120" fill="transparent" stroke="white" stroke-width="3"/><text x="1860" y="660" text-anchor="middle" dominant-baseline="middle" fill="white" font-size="20" font-weight="bold">P6</text></g><g><rect x="0" y="720" width="120" height="120" fill="transparent" stroke="white" stroke-width="3"/><text x="60" y="780" text-anchor="middle" dominant-baseline="middle" fill="white" font-size="20" font-weight="bold">A7</text></g><g><rect x="120" y="720" width="120" height="120" fill="transparent" stroke="white" stroke-width="3"/><text x="180" y="780" text-anchor="middle" dominant-baseline="middle" fill="white" font-size="20" font-weight="bold">B7</text></g><g><rect x="240" y="720" width="120" height="120" fill="transparent" stroke="white" stroke-width="3"/><text x="300" y="780" text-anchor="middle" dominant-baseline="middle" fill="white" font-size="20" font-weight="bold">C7</text></g><g><rect x="360" y="720" width="120" height="120" fill="transparent" stroke="white" stroke-width="3"/><text x="420" y="780" text-anchor="middle" dominant-baseline="middle" fill="white" font-size="20" font-weight="bold">D7</text></g><g><rect x="480" y="720" width="120" height="120" fill="transparent" stroke="white" stroke-width="3"/><text x="540" y="780" text-anchor="middle" dominant-baseline="middle" fill="white" font-size="20" font-weight="bold">E7</text></g><g><rect x="600" y="720" width="120" height="120" fill="transparent" stroke="white" stroke-width="3"/><text x="660" y="780" text-anchor="middle" dominant-baseline="middle" fill="white" font-size="20" font-weight="bold">F7</text></g><g><rect x="720" y="720" width="120" height="120" fill="transparent" stroke="white" stroke-width="3"/><text x="780" y="780" text-anchor="middle" dominant-baseline="middle" fill="white" font-size="20" font-weight="bold">G7</text></g><g><rect x="840" y="720" width="120" height="120" fill="transparent" stroke="white" stroke-width="3"/><text x="900" y="780" text-anchor="middle" dominant-baseline="middle" fill="white" font-size="20" font-weight="bold">H7</text></g><g><rect x="960" y="720" width="120" height="120" fill="transparent" stroke="white" stroke-width="3"/><text x="1020" y="780" text-anchor="middle" dominant-baseline="middle" fill="white" font-size="20" font-weight="bold">I7</text></g><g><rect x="1080" y="720" width="120" height="120" fill="transparent" stroke="white" stroke-width="3"/><text x="1140" y="780" text-anchor="middle" dominant-baseline="middle" fill="white" font-size="20" font-weight="bold">J7</text></g><g><rect x="1200" y="720" width="120" height="120" fill="transparent" stroke="white" stroke-width="3"/><text x="1260" y="780" text-anchor="middle" dominant-baseline="middle" fill="white" font-size="20" font-weight="bold">K7</text></g><g><rect x="1320" y="720" width="120" height="120" fill="transparent" stroke="white" stroke-width="3"/><text x="1380" y="780" text-anchor="middle" dominant-baseline="middle" fill="white" font-size="20" font-weight="bold">L7</text></g><g><rect x="1440" y="720" width="120" height="120" fill="transparent" stroke="white" stroke-width="3"/><text x="1500" y="780" text-anchor="middle" dominant-baseline="middle" fill="white" font-size="20" font-weight="bold">M7</text></g><g><rect x="1560" y="720" width="120" height="120" fill="transparent" stroke="white" stroke-width="3"/><text x="1620" y="780" text-anchor="middle" dominant-baseline="middle" fill="white" font-size="20" font-weight="bold">N7</text></g><g><rect x="1680" y="720" width="120" height="120" fill="transparent" stroke="white" stroke-width="3"/><text x="1740" y="780" text-anchor="middle" dominant-baseline="middle" fill="white" font-size="20" font-weight="bold">O7</text></g><g><rect x="1800" y="720" width="120" height="120" fill="transparent" stroke="white" stroke-width="3"/><text x="1860" y="780" text-anchor="middle" dominant-baseline="middle" fill="white" font-size="20" font-weight="bold">P7</text></g><g><rect x="0" y="840" width="120" height="120" fill="transparent" stroke="white" stroke-width="3"/><text x="60" y="900" text-anchor="middle" dominant-baseline="middle" fill="white" font-size="20" font-weight="bold">A8</text></g><g><rect x="120" y="840" width="120" height="120" fill="transparent" stroke="white" stroke-width="3"/><text x="180" y="900" text-anchor="middle" dominant-baseline="middle" fill="white" font-size="20" font-weight="bold">B8</text></g><g><rect x="240" y="840" width="120" height="120" fill="transparent" stroke="white" stroke-width="3"/><text x="300" y="900" text-anchor="middle" dominant-baseline="middle" fill="white" font-size="20" font-weight="bold">C8</text></g><g><rect x="360" y="840" width="120" height="120" fill="transparent" stroke="white" stroke-width="3"/><text x="420" y="900" text-anchor="middle" dominant-baseline="middle" fill="white" font-size="20" font-weight="bold">D8</text></g><g><rect x="480" y="840" width="120" height="120" fill="transparent" stroke="white" stroke-width="3"/><text x="540" y="900" text-anchor="middle" dominant-baseline="middle" fill="white" font-size="20" font-weight="bold">E8</text></g><g><rect x="600" y="840" width="120" height="120" fill="transparent" stroke="white" stroke-width="3"/><text x="660" y="900" text-anchor="middle" dominant-baseline="middle" fill="white" font-size="20" font-weight="bold">F8</text></g><g><rect x="720" y="840" width="120" height="120" fill="transparent" stroke="white" stroke-width="3"/><text x="780" y="900" text-anchor="middle" dominant-baseline="middle" fill="white" font-size="20" font-weight="bold">G8</text></g><g><rect x="840" y="840" width="120" height="120" fill="transparent" stroke="white" stroke-width="3"/><text x="900" y="900" text-anchor="middle" dominant-baseline="middle" fill="white" font-size="20" font-weight="bold">H8</text></g><g><rect x="960" y="840" width="120" height="120" fill="transparent" stroke="white" stroke-width="3"/><text x="1020" y="900" text-anchor="middle" dominant-baseline="middle" fill="white" font-size="20" font-weight="bold">I8</text></g><g><rect x="1080" y="840" width="120" height="120" fill="transparent" stroke="white" stroke-width="3"/><text x="1140" y="900" text-anchor="middle" dominant-baseline="middle" fill="white" font-size="20" font-weight="bold">J8</text></g><g><rect x="1200" y="840" width="120" height="120" fill="transparent" stroke="white" stroke-width="3"/><text x="1260" y="900" text-anchor="middle" dominant-baseline="middle" fill="white" font-size="20" font-weight="bold">K8</text></g><g><rect x="1320" y="840" width="120" height="120" fill="transparent" stroke="white" stroke-width="3"/><text x="1380" y="900" text-anchor="middle" dominant-baseline="middle" fill="white" font-size="20" font-weight="bold">L8</text></g><g><rect x="1440" y="840" width="120" height="120" fill="transparent" stroke="white" stroke-width="3"/><text x="1500" y="900" text-anchor="middle" dominant-baseline="middle" fill="white" font-size="20" font-weight="bold">M8</text></g><g><rect x="1560" y="840" width="120" height="120" fill="transparent" stroke="white" stroke-width="3"/><text x="1620" y="900" text-anchor="middle" dominant-baseline="middle" fill="white" font-size="20" font-weight="bold">N8</text></g><g><rect x="1680" y="840" width="120" height="120" fill="transparent" stroke="white" stroke-width="3"/><text x="1740" y="900" text-anchor="middle" dominant-baseline="middle" fill="white" font-size="20" font-weight="bold">O8</text></g><g><rect x="1800" y="840" width="120" height="120" fill="transparent" stroke="white" stroke-width="3"/><text x="1860" y="900" text-anchor="middle" dominant-baseline="middle" fill="white" font-size="20" font-weight="bold">P8</text></g><g><rect x="0" y="960" width="120" height="120" fill="transparent" stroke="white" stroke-width="3"/><text x="60" y="1020" text-anchor="middle" dominant-baseline="middle" fill="white" font-size="20" font-weight="bold">A9</text></g><g><rect x="120" y="960" width="120" height="120" fill="transparent" stroke="white" stroke-width="3"/><text x="180" y="1020" text-anchor="middle" dominant-baseline="middle" fill="white" font-size="20" font-weight="bold">B9</text></g><g><rect x="240" y="960" width="120" height="120" fill="transparent" stroke="white" stroke-width="3"/><text x="300" y="1020" text-anchor="middle" dominant-baseline="middle" fill="white" font-size="20" font-weight="bold">C9</text></g><g><rect x="360" y="960" width="120" height="120" fill="transparent" stroke="white" stroke-width="3"/><text x="420" y="1020" text-anchor="middle" dominant-baseline="middle" fill="white" font-size="20" font-weight="bold">D9</text></g><g><rect x="480" y="960" width="120" height="120" fill="transparent" stroke="white" stroke-width="3"/><text x="540" y="1020" text-anchor="middle" dominant-baseline="middle" fill="white" font-size="20" font-weight="bold">E9</text></g><g><rect x="600" y="960" width="120" height="120" fill="transparent" stroke="white" stroke-width="3"/><text x="660" y="1020" text-anchor="middle" dominant-baseline="middle" fill="white" font-size="20" font-weight="bold">F9</text></g><g><rect x="720" y="960" width="120" height="120" fill="transparent" stroke="white" stroke-width="3"/><text x="780" y="1020" text-anchor="middle" dominant-baseline="middle" fill="white" font-size="20" font-weight="bold">G9</text></g><g><rect x="840" y="960" width="120" height="120" fill="transparent" stroke="white" stroke-width="3"/><text x="900" y="1020" text-anchor="middle" dominant-baseline="middle" fill="white" font-size="20" font-weight="bold">H9</text></g><g><rect x="960" y="960" width="120" height="120" fill="transparent" stroke="white" stroke-width="3"/><text x="1020" y="1020" text-anchor="middle" dominant-baseline="middle" fill="white" font-size="20" font-weight="bold">I9</text></g><g><rect x="1080" y="960" width="120" height="120" fill="transparent" stroke="white" stroke-width="3"/><text x="1140" y="1020" text-anchor="middle" dominant-baseline="middle" fill="white" font-size="20" font-weight="bold">J9</text></g><g><rect x="1200" y="960" width="120" height="120" fill="transparent" stroke="white" stroke-width="3"/><text x="1260" y="1020" text-anchor="middle" dominant-baseline="middle" fill="white" font-size="20" font-weight="bold">K9</text></g><g><rect x="1320" y="960" width="120" height="120" fill="transparent" stroke="white" stroke-width="3"/><text x="1380" y="1020" text-anchor="middle" dominant-baseline="middle" fill="white" font-size="20" font-weight="bold">L9</text></g><g><rect x="1440" y="960" width="120" height="120" fill="transparent" stroke="white" stroke-width="3"/><text x="1500" y="1020" text-anchor="middle" dominant-baseline="middle" fill="white" font-size="20" font-weight="bold">M9</text></g><g><rect x="1560" y="960" width="120" height="120" fill="transparent" stroke="white" stroke-width="3"/><text x="1620" y="1020" text-anchor="middle" dominant-baseline="middle" fill="white" font-size="20" font-weight="bold">N9</text></g><g><rect x="1680" y="960" width="120" height="120" fill="transparent" stroke="white" stroke-width="3"/><text x="1740" y="1020" text-anchor="middle" dominant-baseline="middle" fill="white" font-size="20" font-weight="bold">O9</text></g><g><rect x="1800" y="960" width="120" height="120" fill="transparent" stroke="white" stroke-width="3"/><text x="1860" y="1020" text-anchor="middle" dominant-baseline="middle" fill="white" font-size="20" font-weight="bold">P9</text></g></svg>